<?xml version="1.0" encoding="utf-8"?>
<!-- Generator: Adobe Illustrator 15.0.0, SVG Export Plug-In  -->
<!DOCTYPE svg PUBLIC "-//W3C//DTD SVG 1.1//EN" "http://www.w3.org/Graphics/SVG/1.1/DTD/svg11.dtd" [
	<!ENTITY ns_flows "http://ns.adobe.com/Flows/1.0/">
]>
<svg version="1.1"
	 xmlns="http://www.w3.org/2000/svg" xmlns:xlink="http://www.w3.org/1999/xlink" xmlns:a="http://ns.adobe.com/AdobeSVGViewerExtensions/3.0/"
	 x="0px" y="0px" width="116px" height="50px" viewBox="0 0 116 50" overflow="visible" enable-background="new 0 0 116 50"
	 xml:space="preserve">
<defs>
</defs>
<path fill="#5C5F74" d="M59.764,30.32c0-9.035-7.325-16.36-16.361-16.36c-9.035,0-16.361,7.325-16.361,16.36
	c0,9.037,7.326,16.361,16.361,16.361c3.28,0,6.332-0.969,8.893-2.631L58.244,50l4.967-4.967l-5.978-5.977
	C58.834,36.527,59.764,33.534,59.764,30.32 M43.402,40.24c-5.479,0-9.92-4.44-9.92-9.92c0-5.479,4.441-9.92,9.92-9.92
	s9.92,4.441,9.92,9.92C53.322,35.8,48.881,40.24,43.402,40.24"/>
<path fill="#5C5F74" d="M14.182,36.373c0,2.355-1.379,4.045-3.69,4.045c-2.045,0-3.823-1.289-3.823-4.09v-1.609H0v1.965
	c0,6.268,4.312,10.402,10.536,10.402c6.269,0,10.669-4.801,10.669-10.536V14.902h-7.023V36.373z"/>
<path fill="#50CAC6" d="M53.322,30.32c0-5.479-4.441-9.92-9.92-9.92s-9.92,4.441-9.92,9.92c0,5.479,4.441,9.921,9.92,9.921
	S53.322,35.8,53.322,30.32 M43.402,34.988c-2.578,0-4.668-2.09-4.668-4.668s2.09-4.668,4.668-4.668s4.668,2.09,4.668,4.668
	S45.98,34.988,43.402,34.988"/>
<path fill="#FFFFFF" d="M43.402,25.652c-2.578,0-4.668,2.09-4.668,4.668c0,2.579,2.09,4.668,4.668,4.668s4.668-2.089,4.668-4.668
	C48.07,27.742,45.98,25.652,43.402,25.652"/>
<path fill="#50CAC6" d="M17.725,0c-2.578,0-4.668,2.09-4.668,4.668s2.09,4.668,4.668,4.668c2.577,0,4.668-2.09,4.668-4.668
	S20.302,0,17.725,0"/>
<path fill="#50CAC6" d="M81.148,27.659l-4.224-0.8c-2.178-0.4-3.112-1.511-3.112-3.023c0-1.732,1.689-3.377,4.312-3.377
	c3.822,0,5.023,2.489,5.246,3.955l6.312-1.777c-0.668-3.689-3.646-8.402-11.514-8.402c-6.046,0-11.291,4.18-11.291,10.135
	c0,4.668,3.245,8.225,8.579,9.248l4.312,0.799c2.09,0.4,3.379,1.557,3.379,3.156c0,1.956-1.689,3.29-4.445,3.29
	c-4.312,0-6.268-2.534-6.534-5.423l-6.446,1.555c0.444,4.446,4.178,10.092,12.891,10.092c7.514,0,11.647-5.023,11.647-9.957
	C90.261,32.639,87.148,28.771,81.148,27.659"/>
<polygon fill="#50CAC6" points="116.269,21.569 116.269,14.901 95.953,14.901 95.953,46.42 103.021,46.42 103.021,34.639 
	114.668,34.639 114.668,28.238 102.978,28.238 102.978,21.569 "/>
</svg>
