<?xml version="1.0" encoding="utf-8"?>
<!-- Generator: Adobe Illustrator 15.0.0, SVG Export Plug-In  -->
<!DOCTYPE svg PUBLIC "-//W3C//DTD SVG 1.1//EN" "http://www.w3.org/Graphics/SVG/1.1/DTD/svg11.dtd" [
	<!ENTITY ns_flows "http://ns.adobe.com/Flows/1.0/">
]>
<svg version="1.1"
	 xmlns="http://www.w3.org/2000/svg" xmlns:xlink="http://www.w3.org/1999/xlink" xmlns:a="http://ns.adobe.com/AdobeSVGViewerExtensions/3.0/"
	 x="0px" y="0px" width="463px" height="199px" viewBox="0 0 463 199" overflow="visible" enable-background="new 0 0 463 199"
	 xml:space="preserve">
<defs>
</defs>
<path fill="#5C5F74" d="M238.175,120.839c0-36.012-29.193-65.205-65.205-65.205c-36.011,0-65.203,29.193-65.203,65.205
	c0,36.01,29.192,65.203,65.203,65.203c13.072,0,25.235-3.861,35.44-10.484l23.708,23.709l19.793-19.795l-23.82-23.819
	C234.468,145.578,238.175,133.645,238.175,120.839 M172.97,160.374c-21.834,0-39.535-17.7-39.535-39.534
	c0-21.835,17.701-39.536,39.535-39.536s39.535,17.7,39.535,39.536C212.505,142.673,194.804,160.374,172.97,160.374"/>
<path fill="#5C5F74" d="M56.514,144.958c0,9.388-5.492,16.121-14.705,16.121c-8.149,0-15.235-5.139-15.235-16.301v-6.412H0v7.83
	c0,24.981,17.184,41.457,41.987,41.457c24.98,0,42.518-19.134,42.518-41.988V59.388H56.514V144.958z"/>
<path fill="#FFFFFF" d="M212.505,120.838c0-21.834-17.701-39.535-39.535-39.535s-39.535,17.701-39.535,39.535
	c0,21.835,17.701,39.535,39.535,39.535S212.505,142.673,212.505,120.838 M172.97,139.443c-10.274,0-18.604-8.329-18.604-18.604
	c0-10.274,8.329-18.604,18.604-18.604c10.275,0,18.605,8.33,18.605,18.604C191.576,131.114,183.246,139.443,172.97,139.443"/>
<path fill="#50CAC6" d="M172.97,102.234c-10.274,0-18.604,8.33-18.604,18.604c0,10.277,8.329,18.605,18.604,18.605
	c10.275,0,18.605-8.328,18.605-18.605C191.576,110.564,183.246,102.234,172.97,102.234"/>
<path fill="#FFFFFF" d="M70.633,0C60.358,0,52.029,8.33,52.029,18.604c0,10.275,8.329,18.605,18.604,18.605
	c10.274,0,18.604-8.33,18.604-18.605C89.238,8.33,80.908,0,70.633,0"/>
<path fill="#FFFFFF" d="M323.399,110.234l-16.83-3.189c-8.681-1.595-12.401-6.023-12.401-12.047c0-6.909,6.731-13.464,17.185-13.464
	c15.235,0,20.02,9.922,20.905,15.767l25.156-7.086c-2.656-14.705-14.526-33.484-45.885-33.484
	c-24.093,0-44.998,16.654-44.998,40.393c0,18.603,12.932,32.776,34.191,36.851l17.185,3.189c8.327,1.594,13.465,6.199,13.465,12.576
	c0,7.795-6.731,13.111-17.717,13.111c-17.184,0-24.979-10.099-26.042-21.613l-25.688,6.199
	c1.771,17.717,16.653,40.217,51.377,40.217c29.939,0,46.417-20.02,46.417-39.686C359.718,130.076,347.316,114.663,323.399,110.234"
	/>
<polygon fill="#FFFFFF" points="463.365,85.962 463.365,59.388 382.402,59.388 382.402,184.996 410.571,184.996 410.571,138.047 
	456.988,138.047 456.988,112.537 410.394,112.537 410.394,85.962 "/>
</svg>
