<?xml version="1.0" encoding="utf-8"?>
<!-- Generator: Adobe Illustrator 15.0.0, SVG Export Plug-In  -->
<!DOCTYPE svg PUBLIC "-//W3C//DTD SVG 1.1//EN" "http://www.w3.org/Graphics/SVG/1.1/DTD/svg11.dtd" [
	<!ENTITY ns_flows "http://ns.adobe.com/Flows/1.0/">
]>
<svg version="1.1"
	 xmlns="http://www.w3.org/2000/svg" xmlns:xlink="http://www.w3.org/1999/xlink" xmlns:a="http://ns.adobe.com/AdobeSVGViewerExtensions/3.0/"
	 x="0px" y="0px" width="163px" height="11px" viewBox="0 0 163 11" overflow="visible" enable-background="new 0 0 163 11"
	 xml:space="preserve">
<defs>
</defs>
<path fill="none" stroke="#50CAC6" stroke-width="3" stroke-miterlimit="10" d="M0,1.5c5.086,0,5.086,8,10.172,8
	c5.087,0,5.087-8,10.174-8c5.088,0,5.088,8,10.176,8c5.088,0,5.088-8,10.175-8s5.087,8,10.175,8s5.088-8,10.176-8
	c5.089,0,5.089,8,10.177,8s5.088-8,10.176-8c5.089,0,5.089,8,10.177,8c5.087,0,5.087-8,10.174-8s5.087,8,10.175,8
	c5.089,0,5.089-8,10.178-8c5.09,0,5.09,8,10.18,8c5.089,0,5.089-8,10.177-8c5.092,0,5.092,8,10.186,8c5.092,0,5.092-8,10.184-8"/>
</svg>
