<?xml version="1.0" encoding="utf-8"?>
<!-- Generator: Adobe Illustrator 18.1.1, SVG Export Plug-In . SVG Version: 6.00 Build 0)  -->
<svg version="1.1" id="Layer_1" xmlns="http://www.w3.org/2000/svg" xmlns:xlink="http://www.w3.org/1999/xlink" x="0px" y="0px"
	 viewBox="0 0 217.8 118.4" enable-background="new 0 0 217.8 118.4" xml:space="preserve">
<g>
	<g>
		<path fill="#FFFFFF" d="M35.7,37.9l14.8,17.9l0.5-0.5c1.6-1.7,3.1-3.4,4.5-5.1c1.4-1.7,5.1-5.6,6.4-7.4l5.8,10.6
			c-1,1.4-2.3,3.1-3.9,5c-1.6,1.9-3.5,4.1-5.8,6.5l15.3,18.9H57.8l-8.2-10.1c-7.5,7.8-15.4,11.7-23.5,11.7c-7.3,0-13.5-2.3-18.6-7
			C2.5,73.7,0,67.9,0,61c0-8.2,3.9-15.1,11.9-20.5l5.4-3.7c0.1,0,0.2-0.1,0.4-0.3c0.2-0.1,0.4-0.3,0.7-0.6
			c-5.4-5.8-8.2-11.5-8.2-17.1c0-5.6,1.8-10.1,5.4-13.6C19.3,1.7,24.1,0,30,0c5.7,0,10.3,1.7,14,5.1c3.7,3.4,5.6,7.7,5.6,12.8
			c0,3.6-1,6.8-3,9.7C44.5,30.4,40.9,33.9,35.7,37.9z M25.8,44.9l-0.7,0.5c-5.1,3.5-8.6,6.4-10.4,8.5C12.9,56,12,58.3,12,60.7
			c0,3.4,1.4,6.6,4.1,9.4c2.8,2.7,6,4.1,9.4,4.1c4.8,0,10.3-3.1,16.6-9.4L25.8,44.9z M28.5,29.2l1-0.8c1.7-1.3,3.2-2.5,4.3-3.4
			c1.1-1,2-1.8,2.5-2.5c1.1-1.3,1.6-2.9,1.6-4.9c0-2.2-0.7-3.9-2.2-5.3c-1.5-1.4-3.4-2-5.9-2c-2.2,0-4.1,0.7-5.7,2.1
			c-1.5,1.3-2.3,3-2.3,5.1c0,2.4,1,4.8,2.9,7.2l3.1,3.7C27.9,28.5,28.1,28.8,28.5,29.2z"/>
	</g>
	<path fill="#FFFFFF" d="M55.6,27.7c2.9,0.3,5.6,0.5,8.1,0.5c2.5,0.1,5.2,0.1,8.2,0.1c2.9,0,5.9,0,8.9-0.1c3,0,6-0.2,8.9-0.5v1.8
		c-2.1,0.2-4.2,0.8-6.1,1.9c-1.9,1.1-2.9,2.8-2.9,5.3c0,1.9,0.6,4.6,1.9,7.8c1.3,3.3,2.7,6.8,4.4,10.5c1.7,3.7,3.5,7.6,5.3,11.5
		c1.8,3.9,3.2,7.5,4.3,10.8c0.5-1,1.2-2.6,2.3-4.8c1-2.2,2.2-4.8,3.5-7.7c1.3-2.9,2.6-5.9,3.9-9c1.3-3.1,2.5-6,3.7-8.8
		c1.1-2.7,2-5.1,2.8-7.1c0.7-2,1.1-3.4,1.1-4.1c0-1.2-0.3-2.1-0.8-2.8c-0.5-0.7-1.2-1.2-2-1.7c-0.8-0.4-1.7-0.8-2.8-1
		c-1.1-0.2-2.1-0.5-3.1-0.8v-1.8c2.2,0.3,4.5,0.5,6.7,0.5c2.2,0.1,4.5,0.1,6.9,0.1c2.2,0,4.4,0,6.6-0.1c2.1,0,4.3-0.2,6.6-0.5v1.8
		c-2.7,0.4-5.4,2.1-8,5c-2.6,3-5,6.4-7.1,10.1c-2.2,3.8-4.1,7.5-5.8,11.2c-1.7,3.6-2.9,6.4-3.8,8.1c-4.1,8.5-7.8,15.7-11.1,21.7
		c-3.3,6-6.3,11.1-9,15.1c-2.7,4-5.1,7.2-7.3,9.6c-2.2,2.3-4.3,4.1-6.3,5.3c-2,1.2-3.9,2-5.8,2.3c-1.9,0.3-3.9,0.5-5.9,0.5
		c-1.7,0-3.5-0.2-5.2-0.7c-1.7-0.5-3.2-1.2-4.5-2.3c-1.3-1-2.4-2.3-3.2-3.9c-0.8-1.6-1.2-3.4-1.2-5.5c0-1.9,0.7-3.7,2.1-5.2
		c1.4-1.6,3.1-2.3,5-2.3c2.2,0,4,0.6,5.4,1.7c1.4,1.1,2,2.8,2,5.2c0,1.6-0.4,3-1.2,4.2c-0.8,1.1-1.2,1.9-1.2,2.4
		c0,0.6,0.7,0.9,2.1,1.1c1.4,0.1,2.8,0.2,4.2,0.2c2.9,0,5.8-1.2,8.6-3.6c2.8-2.4,5.3-5.1,7.5-8.2c2.2-3.1,4-6,5.3-8.8
		c1.4-2.8,2-4.6,2-5.3c0-0.3-0.3-1.3-1-3c-0.7-1.7-1.6-3.9-2.8-6.6c-1.2-2.7-2.5-5.7-3.9-9c-1.5-3.3-2.9-6.6-4.4-9.8
		c-1.5-3.3-2.9-6.4-4.4-9.5c-1.5-3.1-2.7-5.7-3.8-7.8c-1-2.2-1.8-4-2.5-5.4c-0.7-1.4-1.5-2.5-2.5-3.3c-1-0.8-2.1-1.5-3.5-2
		c-1.4-0.5-3.2-1-5.4-1.6V27.7z"/>
	<path fill="#FFFFFF" d="M135.6,51.3c0,5.1,0.7,9.2,2,12.6c1.3,3.3,3,5.9,5,7.9c2,2,4.1,3.3,6.4,4.1c2.3,0.8,14.1,0.5,17.4-0.8
		c3.3-1.3,6.4-3.4,9.2-6.2l2.5,2.3c-4,4.3-8.1,7.5-12.3,9.8c-4.2,2.2-9.2,3.4-15,3.4c-4.2,0-7.9-0.8-11.2-2.5
		c-3.3-1.6-6.1-3.8-8.5-6.6c-2.3-2.7-4.1-5.8-5.3-9.3c-1.2-3.5-1.8-7.1-1.8-10.8c0-3.7,0.6-7.3,1.8-10.8c1.2-3.5,3-6.6,5.3-9.3
		c2.3-2.7,5.2-4.9,8.5-6.6c3.3-1.7,7-2.5,11.2-2.5c7.7,0,13.9,2.1,18.5,6.3c4.7,4.2,7.5,10.6,8.6,19.1H135.6z M164,46.9
		c-0.3-2.6-0.7-5-1.2-7.1c-0.5-2.1-1.3-3.8-2.3-5.2c-1.1-1.4-2.5-2.5-4.2-3.2c-1.8-0.7-4-1.1-6.7-1.1c-2,0-3.9,0.5-5.6,1.5
		c-1.7,1-3.2,2.3-4.4,3.9c-1.2,1.6-2.1,3.4-2.8,5.4c-0.6,2-0.9,3.9-0.9,5.8H164z"/>
	<path fill="#FFFFFF" d="M173.9,32.8v-2.3c3.1-0.1,5.8-0.9,8-2.3c2.2-1.5,4.2-3.3,5.8-5.5c1.7-2.2,3-4.7,4.2-7.4
		c1.1-2.7,2.1-5.3,3-7.9h2v21.2h20v4.4h-20v34c0,1.3,0.1,2.5,0.2,3.7c0.1,1.2,0.4,2.3,0.9,3.3c0.4,1,1.1,1.8,1.9,2.3
		c0.8,0.6,2,0.9,3.4,0.9c2.9,0,5.4-0.6,7.3-1.9c2-1.3,3.9-2.9,5.8-4.8l1.3,1.5c-1.7,1.5-3.3,2.9-4.8,4.4c-1.6,1.5-3.2,2.9-4.9,4.1
		c-1.7,1.2-3.6,2.2-5.5,2.9c-2,0.7-4.2,1.1-6.5,1.1c-4.1,0-6.9-1.2-8.3-3.7c-1.5-2.5-2.2-5.4-2.2-8.8v-39H173.9z"/>
</g>
</svg>
