<?xml version="1.0" encoding="utf-8"?>
<!-- Generator: Adobe Illustrator 18.1.1, SVG Export Plug-In . SVG Version: 6.00 Build 0)  -->
<svg version="1.1" id="Layer_1" xmlns="http://www.w3.org/2000/svg" xmlns:xlink="http://www.w3.org/1999/xlink" x="0px" y="0px"
	 viewBox="0 0 408.3 100" enable-background="new 0 0 408.3 100" xml:space="preserve">
<g>
	<g>
		<polygon fill="#FFFFFF" points="114.6,48.5 114.6,48.5 114.6,48.5 		"/>
		<path fill="#FFFFFF" d="M389,73.4l0.1,0c8.3,0,14.1-5.7,14.1-13.9c0-4.1-1.1-7.8-3.3-10.5c-2.3-2.8-5.5-4.4-9.2-4.4h-0.1
			c-5.1,0-9.8,3.9-14.4,11.8l-0.4,0.6l-0.2-0.7c-1.2-3.4-2.2-6.2-2.8-7.9c-0.4-1.2-0.6-1.7-0.7-1.9c-0.2-0.9-1-1.4-1.9-1.4
			c-0.6,0-1.2,0.2-1.8,0.6c-0.6,0.4-0.9,0.8-1,1.4l0,0.1c-4.6,14.4-8.4,21.4-11.7,21.4c-0.5,0-0.8-0.2-1.1-0.5
			c-0.8-0.9-0.6-3.2-0.4-6.2c0.2-2.3,0.5-4.8,0.4-7.5c-0.2-5.2-3.1-8.4-7.7-8.4c-5.8,0-9.6,6.2-11.4,9.9l-0.5,1.1l-0.1-1.2
			c-0.4-4.6-2-10.1-6.8-10.1c-5.7,0-10,6.7-12.6,12.3l-0.7,1.5l0.1-1.7c0.3-7.5,0.6-11.9,0.8-13.1c0.2-1.2,0.1-2-0.3-2.5
			c-0.4-0.4-1.1-0.6-2.1-0.5c-1.8,0.1-2.7,1.2-4.1,4.9c-2.3,6.1-8.1,20.3-12.8,20.3c-0.9,0-1.7-0.3-2.2-0.9c-2-2.2-1.2-8.3-0.1-16.7
			l0.1-0.6c0.5-4-0.4-4.8-2.5-5.2c-0.2,0-0.5-0.1-0.7-0.1c-1.7,0-2.5,1.7-4.1,6.2c-2.9,8.2-6.5,16.8-10.9,16.8c-0.2,0-0.3,0-0.5,0
			c-2.3-0.4-2.2-3.8-2.2-8.1c0-2.3,0.1-5-0.3-7.3c-0.6-4.3-3.2-6.9-6.6-6.9c-6.8,0-11.4,8.7-13.5,13.9l-0.5,1.2l-0.2-1.3
			c-0.3-2.2-0.7-5.8-0.8-10l0-0.1l0.1-0.1c12.7-16,18.4-27.5,18.5-37.4c0-6.3-2.9-10.1-7.8-10.1c-3.6,0-12.2,3-15.1,30.8
			c-0.6,5.2-0.9,10.4-0.9,15.7l0,0.1l-0.1,0.1c-5.8,8.4-18.2,22.9-30.3,22.9c-11,0-19.7-8.9-19.7-24.5c0-21,14.9-33.9,26-33.9l0.1,0
			c2.4,0,4.5,0.7,6,2c1.6,1.3,2.4,3.2,2.4,5.3c0,2.9-1,4.4-1.9,5.8c-0.2,0.4-0.5,0.7-0.7,1.1c-0.2,0.4-0.4,1-0.1,1.5
			c0.3,0.5,1,0.8,2,0.8c2.7,0,6.7-3.9,6.7-9.7c0-6.1-5.1-12.3-14.2-12.3c-13.8,0-32.4,15.2-32.4,39.8c0,17.4,10.9,29.4,25.7,29.4
			c10.5,0,20.9-7.5,30.1-20.1l0.6-0.8l0,0.9c0.2,4.6,0.5,8.2,0.8,10.9c0.2,1.7,0.3,2.9,0.3,3.6c0,1.5,0.2,2.5,0.7,3.1
			c0.5,0.6,1.3,0.9,2.6,0.9c2.1,0,2.5-1.4,3.3-4.9l0.2-1c1-4.2,4.8-17.9,10.4-17.9c0.9,0,1.6,0.3,2.1,0.8c1.2,1.3,1.1,4,1,7.2
			c-0.1,2-0.2,4,0,6c0.5,5.3,2.8,7.9,7,8c4.3,0,8.8-4.6,11.2-9l0.4-0.8l0.2,0.9c0.4,2.3,2.4,9.9,8.5,9.9c5.6,0,10.3-5.9,15.6-17.9
			l0.7-1.6l0,1.7c-0.1,4.6-0.4,10.1-0.4,14.5c0,3.3,0.3,4.6,1.9,4.6c0.1,0,0.2,0,0.3,0c1.5,0,2.5-0.9,3-2.6
			c3.9-13.7,7.3-20.1,10.7-20.1c3.3,0,3.6,6.1,3.9,16.7l0,0.7c0.1,3.7,0.2,5.4,2.5,5.4c1.8,0,2.2-1.4,3.1-4.8
			c0.2-0.6,0.4-1.4,0.6-2.1c3.2-11,5.8-15.5,9.1-15.5c2.8,0,3,2.9,3,3.9c0.1,2-0.1,4.2-0.3,6.2c-0.2,1.9-0.4,3.9-0.3,5.7
			c0.2,4.3,2.5,6.7,6.6,6.7c5.3,0,10.2-6.2,14.4-18.6l0.3-0.9l0.3,0.8c0.8,1.9,1.8,4.6,2.7,7.7l0,0.1l-0.1,0.1
			c-4.1,9.1-7,19.2-7,24.6c-0.1,7.1,3.2,11.7,8.2,11.8h0.1c2.7,0,9.1-1.1,9.3-11.3c0-4.2-0.9-10.1-2.9-17.5l-0.2-0.9l0.7,0.5
			C383.3,72.5,386.1,73.4,389,73.4z M251.3,38.9c0.1-2.6,0.3-5,0.6-7.4c2-15.1,6.1-25.7,10-25.7h0c1.9,0,2.8,1.4,2.8,4.2
			c-0.1,6.8-4.4,16.6-12.9,29.1l-0.7,1L251.3,38.9z M376.8,93.3c-0.6,0.8-1.5,1.3-2.6,1.3c-1.3,0-2.2-0.4-2.8-1.3
			c-1.8-2.4-1.3-8,1.6-18.3c0.3-1.2,0.7-2.5,1.1-3.7l0.3-1l0.3,1C378.2,83.2,378.9,90.6,376.8,93.3z M377.9,63l-0.1-0.1l-0.1-0.4
			l0.1-0.1c3.9-8,8.4-12.6,12.2-12.6h0c4.4,0,7.4,4,7.4,9.6c0,3.7-1.7,5.9-3.1,7c-1.6,1.3-3.7,2.1-5.7,2.1
			C383.4,68.5,379.9,65.5,377.9,63z"/>
		<path fill="#FFFFFF" d="M390,50.1L390,50.1L390,50.1z"/>
		<path fill="#FFFFFF" d="M129.6,72.1c6-0.5,10.8-8.7,12.5-12.1l0.5-0.9l0.2,1c0.8,4.9,3.5,13.2,11.9,13.2h0.1
			c3.6,0,7.7-2.2,11.9-6.4l0.3-0.3l0.2,0.4c2.8,4.7,6.5,7.1,10.5,6.9c5.9-0.3,9.4-4.5,9.7-7.3c0.1-0.7-0.1-1.4-0.5-1.9
			c-0.5-0.6-1.3-0.7-1.9-0.1l-0.3,0.3c-1.4,1.3-3.9,3.8-6.7,3.9c-3.4,0.2-5.9-1.9-7.5-6.1l-0.1-0.2l0.1-0.1
			c9.3-12.2,15.9-30.8,15.2-43.3c-0.3-5.8-2-12.7-8.3-12.7c-0.2,0-0.3,0-0.5,0c-2.4,0.1-4.6,1.3-6.5,3.4c-5.9,6.6-8.9,22.7-7.8,41.1
			c0.2,3.8,0.9,7.4,2,10.6l0.1,0.2l-0.1,0.1c-3.5,4-6.9,6.3-9.6,6.3c-6.6,0-6.4-11.1-5.9-20.2c0.1-2,0.3-3.2-0.3-4
			c-0.4-0.5-1.1-0.8-2.1-0.8l-0.1,0c-2.3,0-2.8,0.5-4,4c-2.5,7.2-7.4,19.4-12.4,19.4c-1.4,0-2.4-0.5-3.1-1.4
			c-2.4-3.1-0.6-10.7,0.9-16.9c0.3-1.1,0.5-2.2,0.7-3.2c0.3-1.5,0.2-2.5-0.3-3.2c-0.5-0.6-1.6-0.9-2.9-0.8c-2.1,0.2-3.5,1.1-4.1,5.1
			l-0.1,0.8l-0.5-0.6c-0.9-1.4-2.7-3-6.1-3c-0.3,0-0.6,0-0.9,0c-3.6,0.3-7.7,2.8-10.7,6.5c-3.5,4.4-5.2,9.9-4.7,15.5
			c0,0.3,0.1,0.6,0.1,0.9l0,0.2l-0.1,0.1C96.2,68.9,94.1,70,92,70c-3.3,0-5.1-2.4-5.1-6.5c0-6.8,4.6-27.2,4.6-34.6
			c0-7.9-3.5-12.2-9.6-12.2l-0.1,0c-8.9,0-15.8,10.1-22.4,30.8c-0.6,1.9-1.3,4.1-1.8,6l-0.9,3.1l0.3-3.2c0.6-7.2,1-14.3,1.3-20.9
			c0.3-10-1-16.5-4.1-19.7c-1.7-1.8-3.9-2.6-6.8-2.6h-0.1c-10.9,0-16.1,18.3-19.9,31.3c-1.1,3.9-3.4,12.7-4.9,18.7l0.9-1.5
			c0.7-7.6,2.6-26.6,2.5-36.9c-0.1-11.1-3.8-16-11.9-16.1h-0.1c-4.3,0-7.4,2.2-9.1,4C1.7,12.7-0.1,16.9,0,20.6
			c0.1,2.2,1.4,4.2,2.5,4.2c0.7,0,1-0.9,1.2-1.4C6.2,15,9.4,11,13.6,11c1.7,0,3,0.5,4,1.6c3.3,3.5,2.7,12.9,1.6,30.1
			c-0.3,5.5-0.7,11.8-1.1,18.9c-0.1,1.2-0.1,2.4-0.2,3.5c-0.3,4.9-0.6,8.9,1.3,9.1c2.4,0.4,4-0.6,4.8-3c1.2-3.6,3.9-13.4,9.1-31.3
			c5-17.2,8.8-23.4,13.7-23.4c5.6,0,6,9.6,5,29.9c-0.2,4.3-0.5,9.2-0.7,14.5c0,0.7-0.1,1.5-0.1,2.2c-0.2,4.4-0.4,7.9,0.9,9.2
			c0.4,0.4,0.9,0.6,1.6,0.6c2.4,0,3.2-2.1,4.4-5.7c0.2-0.6,0.4-1.3,0.7-2c8.3-23,14.5-42.9,22.8-42.9c2.5,0,4.4,2,4.4,5.9
			c0,9.1-4.4,26.6-4.4,35.5c0,3.2,0.9,6,2.6,8c1.8,2.1,4.3,3.2,7.2,3.2h0.1c2.8,0,5.6-1.3,8.6-4l0.3-0.2l0.2,0.3
			c1.9,2.6,5,4,8.4,3.7c5.1-0.4,9.4-5,11.1-9.3l0.3-0.8l0.3,0.8C121.5,68.7,124.1,72.5,129.6,72.1z M177,12.1L177,12.1
			c0.7,0,1.2,0.3,1.6,0.9c2,2.8,2.1,12.8-1.4,24.3c-2,6.5-4.7,12.7-7.8,17.9l-0.5,0.8l-0.1-0.9c-0.4-2.8-0.5-5.7-0.7-8.1
			C167.2,29.5,172.4,12.3,177,12.1z M120,52.5c-1.8,7.2-5.2,16-11.5,16.5c-0.2,0-0.3,0-0.5,0c-2.6,0-4-1.7-4.3-5
			c-0.3-4.2,1.5-9,4.6-12.4c2-2.2,4.2-3.3,6.3-3.3h0c2.6,0,4.5,2.1,5.3,4.1l0,0.1L120,52.5z"/>
		<path fill="#FFFFFF" d="M262,6.1L262,6.1L262,6.1z"/>
		<path fill="#FFFFFF" d="M148.8,26c-2.3,0-4.1,1.8-4.2,4c0,2.2,1.8,4.1,4.1,4.1l0,0.3l0,0v-0.3c2.3,0,4.1-1.8,4.1-4
			C152.9,27.8,151.1,26,148.8,26z"/>
		<path fill="#FFFFFF" d="M293.1,26c-2.3,0-4.1,1.8-4.2,4c0,2.2,1.8,4.1,4.1,4.1l0,0.3l0,0v-0.3c2.3,0,4.1-1.8,4.1-4
			C297.2,27.8,295.4,26,293.1,26z"/>
	</g>
	<g>
		<path fill="#FFFFFF" d="M405.5,68.8c-1.6,0-2.8,1.3-2.8,2.8c0,1.6,1.3,2.8,2.8,2.8c1.6,0,2.8-1.3,2.8-2.8
			C408.3,70.1,407,68.8,405.5,68.8z M405.5,74.1c-1.3,0-2.4-1.1-2.4-2.4c0-1.3,1.1-2.4,2.4-2.4c1.3,0,2.4,1.1,2.4,2.4
			C407.9,73,406.8,74.1,405.5,74.1z"/>
		<path fill="#FFFFFF" d="M406.7,70.9c0-0.6-0.3-0.9-1-0.9h-1.2v3.2h0.4v-1.4h0.6l1,1.4h0.5l-1-1.4
			C406.3,71.8,406.7,71.5,406.7,70.9z M405.4,71.5h-0.5v-1.1h0.7c0.3,0,0.7,0.1,0.7,0.5C406.3,71.5,405.8,71.5,405.4,71.5z"/>
	</g>
</g>
</svg>
